# xmcd CD database file
#
# Track frame offsets:
#	150
#	19629
#	41916
#	61362
#	80145
#
# Disc length: 1438 seconds
#
# Revision: 0
# Processed by: cddbd v1.5.1PL2 Copyright (c) Steve Scherf et al.
# Submitted via: CDex 1.51
#
DISCID=3d059c05
DTITLE=RAM RIDER - HELLO
DYEAR=2005
DGENRE=Disco
TTITLE0=HELLO
TTITLE1=ベッドルームディスコ (TUTOR mix) Remixed by shose
TTITLE2=HELLO (instrumental)
TTITLE3=Sampling for MUSIC
TTITLE4=CD EXTRA 「HELLO」 MUSIC VIDEO
EXTD=YEAR: 2005
EXTT0=
EXTT1=
EXTT2=
EXTT3=
EXTT4=
PLAYORDER=
